<svg width="146" height="32" viewBox="0 0 146 32" fill="none" xmlns="http://www.w3.org/2000/svg">
<g clip-path="url(#clip0)">
<path d="M35.8708 29.8096H55.2268" stroke="white" stroke-miterlimit="10"/>
<path d="M35.8708 16.0288H55.2268" stroke="white" stroke-miterlimit="10"/>
<path d="M35.8708 2.24316H55.2268" stroke="white" stroke-miterlimit="10"/>
<path d="M121.494 11.9172V32.0001" stroke="white" stroke-miterlimit="10"/>
<path d="M121.657 1.21533H121.332V1.57558H121.657V1.21533Z" fill="white" stroke="white" stroke-miterlimit="10"/>
<path d="M99.6539 22.4893V30.996H110.838" stroke="white" stroke-miterlimit="10"/>
<path d="M99.6539 0V16.1441V18.2864" fill="white"/>
<path d="M99.6539 0V16.1441V18.2864" stroke="white" stroke-miterlimit="10"/>
<path d="M104.854 12.4504H99.6539" stroke="white" stroke-miterlimit="10"/>
<path d="M25.4048 7.42608L28.0514 1.21533" stroke="white" stroke-miterlimit="10" stroke-linecap="square"/>
<path d="M0.315186 1.21533L15.5553 30.5206L21.4465 16.7062" stroke="white" stroke-miterlimit="10" stroke-linecap="square"/>
<path d="M144.712 16.5381V31.1931H133.179" stroke="white" stroke-linejoin="round"/>
<path d="M144.637 16.7061C143.327 17.8113 141.692 18.4197 140.002 18.4306C135.687 18.4306 132.192 14.5062 132.192 9.66442C132.192 4.82263 135.687 0.903076 140.002 0.903076C141.575 0.906117 143.105 1.43135 144.368 2.40172" stroke="white" stroke-linejoin="round"/>
<path d="M145.235 16.1345C145.036 16.3363 144.832 16.5236 144.614 16.7061L145.235 16.1345Z" fill="white"/>
<path d="M145.235 16.1345C145.036 16.3363 144.832 16.5236 144.614 16.7061" stroke="white" stroke-linejoin="round"/>
<path d="M145.824 15.4622C145.638 15.6975 145.439 15.9425 145.235 16.1346L145.824 15.4622Z" fill="white"/>
<path d="M145.824 15.4622C145.638 15.6975 145.439 15.9425 145.235 16.1346" stroke="white" stroke-linejoin="round"/>
<path d="M87.3293 31.0248H87.5425V6.56128" fill="white"/>
<path d="M87.3293 31.0248H87.5425V6.56128" stroke="white" stroke-miterlimit="10"/>
<path d="M67.1483 30.7175H66.9119V6.24914C66.9131 4.66603 67.5205 3.14814 68.6007 2.02871C69.6809 0.909285 71.1456 0.279837 72.6733 0.278564H87.9273" stroke="white" stroke-miterlimit="10"/>
<path d="M67.19 30.7175H67.1436" stroke="white" stroke-miterlimit="10"/>
</g>
<defs>
<clipPath id="clip0">
<rect width="146" height="32" fill="white"/>
</clipPath>
</defs>
</svg>
